<svg width="48" height="48" viewBox="0 0 48 48" fill="none" xmlns="http://www.w3.org/2000/svg">
<path d="M26.9897 39.9222C25.8722 40.2623 24.9853 39.4253 24.6957 38.6175C24.5296 38.1546 24.3784 37.7257 24.236 37.3232C23.6705 35.7228 23.2535 34.5437 22.6839 33.357C20.887 29.6101 18.593 26.6779 14.3049 24.6639C12.668 23.895 11.6169 22.0281 12.1316 20.1356L12.9684 17.0598C13.2035 16.1949 13.6604 15.4101 14.2917 14.7869C14.9231 14.1637 15.7058 13.7247 16.5588 13.5155L26.0994 11.1767C27.6841 10.7881 29.3543 11.046 30.7565 11.8957C32.1587 12.7455 33.1828 14.1204 33.6118 15.7294L35.8725 24.208C36.4902 26.5259 34.7855 28.8106 32.438 28.8106H29.0205C29.5047 30.5039 29.8763 32.579 29.8613 34.4667C29.8518 35.6388 29.6932 36.8041 29.2707 37.7729C28.8374 38.7653 28.1092 39.5828 26.9897 39.9222Z" fill="#1F3865"/>
</svg>
