<svg width="48" height="48" viewBox="0 0 48 48" fill="none" xmlns="http://www.w3.org/2000/svg">
<path d="M17.5 8H17.6375C19.6312 8 21.4812 9.05687 22.4937 10.7781L24 13.3412L25.5063 10.7781C26.5188 9.05687 28.3687 8 30.3625 8H30.5C33.5375 8 36 10.4625 36 13.5C36 14.4 35.7812 15.1937 35.4 16H38C39.1063 16 40 16.8938 40 18V22C40 23.1062 39.1063 24 38 24H10C8.89562 24 8 23.1062 8 22V18C8 16.8938 8.89562 16 10 16H12.6C12.2162 15.1937 12 14.4 12 13.5C12 10.4625 14.4625 8 17.5 8ZM19.9062 12.2987C19.4312 11.4944 18.5687 11 17.6375 11H17.5C16.1187 11 15 12.1194 15 13.5C15 14.8812 16.1187 16 17.5 16H22.0813L19.9062 12.2987ZM30.5 11H30.3625C29.4312 11 28.5688 11.4944 28.0938 12.2987L25.9188 16H30.5C31.8813 16 33 14.8812 33 13.5C33 12.1194 31.8813 11 30.5 11ZM10 26H22V40H13C11.3431 40 10 38.6562 10 37V26ZM26 40V26H38V37C38 38.6562 36.6562 40 35 40H26Z" fill="white"/>
</svg>
