<svg width="48" height="48" viewBox="0 0 48 48" fill="none" xmlns="http://www.w3.org/2000/svg">
<path d="M26.9897 8.0778C25.8722 7.73774 24.9853 8.5747 24.6957 9.38252C24.5296 9.84542 24.3784 10.2743 24.236 10.6768C23.6705 12.2772 23.2535 13.4563 22.6839 14.643C20.887 18.3899 18.593 21.3221 14.3049 23.3361C12.668 24.105 11.6169 25.9719 12.1316 27.8644L12.9684 30.9402C13.2035 31.8051 13.6604 32.5899 14.2917 33.2131C14.9231 33.8363 15.7058 34.2753 16.5588 34.4845L26.0994 36.8233C27.6841 37.2119 29.3543 36.954 30.7565 36.1043C32.1587 35.2545 33.1828 33.8796 33.6118 32.2706L35.8725 23.792C36.4902 21.4741 34.7855 19.1894 32.438 19.1894H29.0205C29.5047 17.4961 29.8763 15.421 29.8613 13.5333C29.8518 12.3612 29.6932 11.1959 29.2707 10.2271C28.8374 9.2347 28.1092 8.41716 26.9897 8.0778Z" fill="#FC6A57"/>
</svg>
